<svg width="320" height="63" viewBox="0 0 320 63" fill="none" xmlns="http://www.w3.org/2000/svg">
<path d="M280.553 55.9999V43.6467H283.07V44.9519H283.117C283.365 44.4857 283.723 44.1128 284.189 43.8331C284.655 43.5534 285.152 43.4136 285.68 43.4136C286.038 43.4136 286.403 43.4913 286.776 43.6467L286.356 46.2338C285.906 46.1095 285.579 46.0474 285.377 46.0474C283.932 46.0474 283.21 47.0729 283.21 49.124V55.9999H280.553Z" fill="white"/>
<path d="M275.578 51.8978L277.49 53.4594C276.293 55.3862 274.584 56.3496 272.362 56.3496C270.653 56.3496 269.254 55.7591 268.166 54.5782C267.094 53.3817 266.558 51.7968 266.558 49.8234C266.558 47.8499 267.094 46.2728 268.166 45.0918C269.239 43.8954 270.598 43.2971 272.245 43.2971C273.892 43.2971 275.236 43.8876 276.278 45.0685C277.334 46.2495 277.862 47.8344 277.862 49.8234V50.6158H269.239C269.27 51.6414 269.549 52.4649 270.078 53.0865C270.621 53.6925 271.367 53.9955 272.315 53.9955C272.766 53.9955 273.17 53.9333 273.527 53.809C273.885 53.6847 274.195 53.4982 274.46 53.2496C274.739 53.001 274.949 52.7835 275.089 52.597C275.229 52.4105 275.392 52.1775 275.578 51.8978ZM269.262 48.6113H275.275C275.229 47.7412 274.949 47.0342 274.436 46.4903C273.923 45.9309 273.193 45.6512 272.245 45.6512C271.36 45.6512 270.653 45.9465 270.124 46.5369C269.596 47.1274 269.308 47.8189 269.262 48.6113Z" fill="white"/>
<path d="M261.229 51.2684V48.4715C261.229 47.7101 260.972 47.0574 260.459 46.5136C259.962 45.9697 259.278 45.6978 258.408 45.6978C257.414 45.6978 256.645 46.0552 256.101 46.77C255.557 47.4692 255.285 48.487 255.285 49.8233C255.285 51.1596 255.557 52.1852 256.101 52.9C256.645 53.5992 257.414 53.9488 258.408 53.9488C259.247 53.9488 259.923 53.6924 260.436 53.1797C260.964 52.6514 261.229 52.0143 261.229 51.2684ZM261.415 55.9999V54.8112H261.368C261.244 54.9822 261.081 55.1608 260.879 55.3473C260.693 55.5182 260.32 55.728 259.76 55.9766C259.216 56.2252 258.626 56.3496 257.989 56.3496C256.357 56.3496 255.052 55.7591 254.073 54.5781C253.11 53.3972 252.628 51.8123 252.628 49.8233C252.628 47.8344 253.148 46.2494 254.19 45.0685C255.246 43.8876 256.505 43.2971 257.965 43.2971C259.271 43.2971 260.343 43.8099 261.182 44.8354H261.229V38.9851H263.886V55.9999H261.415Z" fill="white"/>
<path d="M247.253 55.9999V43.6467H249.911V55.9999H247.253ZM247.207 41.6189V38.9851H249.957V41.6189H247.207Z" fill="white"/>
<path d="M237.936 56L232.971 43.6467H235.721L239.031 52.1774H239.078L242.387 43.6467H245.114L240.15 56H237.936Z" fill="white"/>
<path d="M226.45 53.9489C227.366 53.9489 228.104 53.5915 228.664 52.8767C229.239 52.1464 229.526 51.1286 229.526 49.8234C229.526 48.5181 229.239 47.5081 228.664 46.7933C228.104 46.063 227.366 45.6978 226.45 45.6978C225.517 45.6978 224.764 46.0552 224.189 46.77C223.629 47.4848 223.35 48.5026 223.35 49.8234C223.35 51.1597 223.629 52.1852 224.189 52.9C224.748 53.5992 225.502 53.9489 226.45 53.9489ZM230.528 54.6248C229.472 55.7747 228.112 56.3496 226.45 56.3496C224.787 56.3496 223.412 55.7747 222.324 54.6248C221.252 53.4749 220.716 51.8745 220.716 49.8234C220.716 47.8033 221.267 46.2106 222.371 45.0452C223.489 43.8798 224.849 43.2971 226.45 43.2971C228.05 43.2971 229.394 43.8798 230.482 45.0452C231.585 46.2106 232.137 47.8033 232.137 49.8234C232.137 51.8745 231.601 53.4749 230.528 54.6248Z" fill="white"/>
<path d="M213.542 55.9999V43.6467H216.06V44.9519H216.106C216.355 44.4857 216.712 44.1128 217.178 43.8331C217.644 43.5534 218.142 43.4136 218.67 43.4136C219.027 43.4136 219.393 43.4913 219.765 43.6467L219.346 46.2338C218.895 46.1095 218.569 46.0474 218.367 46.0474C216.922 46.0474 216.199 47.0729 216.199 49.124V55.9999H213.542Z" fill="white"/>
<path d="M199.481 55.9999V39.6843H205.984C207.647 39.6843 208.991 40.1427 210.016 41.0595C211.042 41.9763 211.555 43.2349 211.555 44.8354C211.555 46.4203 211.057 47.6712 210.063 48.588C209.069 49.4892 207.717 49.9398 206.007 49.9398H202.232V55.9999H199.481ZM202.232 47.3993H205.938C206.746 47.3993 207.414 47.174 207.942 46.7233C208.47 46.2572 208.734 45.6279 208.734 44.8354C208.734 43.9341 208.463 43.2738 207.919 42.8542C207.375 42.4347 206.707 42.2249 205.914 42.2249H202.232V47.3993Z" fill="white"/>
<path d="M187.276 51.2684V48.4715C187.276 47.7101 187.019 47.0574 186.507 46.5136C186.009 45.9697 185.326 45.6978 184.455 45.6978C183.461 45.6978 182.692 46.0552 182.148 46.77C181.604 47.4692 181.332 48.487 181.332 49.8233C181.332 51.1596 181.604 52.1852 182.148 52.9C182.692 53.5992 183.461 53.9488 184.455 53.9488C185.295 53.9488 185.97 53.6924 186.483 53.1797C187.012 52.6514 187.276 52.0143 187.276 51.2684ZM187.462 55.9999V54.8112H187.416C187.291 54.9822 187.128 55.1608 186.926 55.3473C186.74 55.5182 186.367 55.728 185.807 55.9766C185.263 56.2252 184.673 56.3496 184.036 56.3496C182.404 56.3496 181.099 55.7591 180.12 54.5781C179.157 53.3972 178.675 51.8123 178.675 49.8233C178.675 47.8344 179.196 46.2494 180.237 45.0685C181.293 43.8876 182.552 43.2971 184.013 43.2971C185.318 43.2971 186.39 43.8099 187.229 44.8354H187.276V38.9851H189.933V55.9999H187.462Z" fill="white"/>
<path d="M174.516 51.8978L176.428 53.4594C175.231 55.3862 173.522 56.3496 171.3 56.3496C169.591 56.3496 168.192 55.7591 167.104 54.5782C166.032 53.3817 165.496 51.7968 165.496 49.8234C165.496 47.8499 166.032 46.2728 167.104 45.0918C168.177 43.8954 169.536 43.2971 171.183 43.2971C172.83 43.2971 174.174 43.8876 175.216 45.0685C176.272 46.2495 176.8 47.8344 176.8 49.8234V50.6158H168.177C168.208 51.6414 168.487 52.4649 169.016 53.0865C169.559 53.6925 170.305 53.9955 171.253 53.9955C171.704 53.9955 172.108 53.9333 172.465 53.809C172.823 53.6847 173.133 53.4982 173.398 53.2496C173.677 53.001 173.887 52.7835 174.027 52.597C174.167 52.4105 174.33 52.1775 174.516 51.8978ZM168.2 48.6113H174.213C174.167 47.7412 173.887 47.0342 173.374 46.4903C172.861 45.9309 172.131 45.6512 171.183 45.6512C170.298 45.6512 169.591 45.9465 169.062 46.5369C168.534 47.1274 168.246 47.8189 168.2 48.6113Z" fill="white"/>
<path d="M152.942 55.9999V45.9309H151.077V43.6467H153.011V41.852C153.011 40.7954 153.268 40.0573 153.781 39.6377C154.309 39.2026 155.07 38.9851 156.065 38.9851H157.929V41.3392H156.601C156.197 41.3392 155.917 41.4169 155.762 41.5723C155.606 41.7277 155.529 42.0229 155.529 42.458V43.6467H162.778V55.9999H160.12V45.9309H155.599V55.9999H152.942ZM160.074 41.6189V38.9851H162.824V41.6189H160.074Z" fill="white"/>
<path d="M146.169 55.9999V43.6467H148.826V55.9999H146.169ZM146.122 41.6189V38.9851H148.873V41.6189H146.122Z" fill="white"/>
<path d="M137.678 55.9999V43.6467H140.195V44.9519H140.242C140.49 44.4857 140.848 44.1128 141.314 43.8331C141.78 43.5534 142.277 43.4136 142.805 43.4136C143.163 43.4136 143.528 43.4913 143.901 43.6467L143.481 46.2338C143.031 46.1095 142.704 46.0474 142.502 46.0474C141.057 46.0474 140.335 47.0729 140.335 49.124V55.9999H137.678Z" fill="white"/>
<path d="M132.703 51.8978L134.614 53.4594C133.418 55.3862 131.709 56.3496 129.487 56.3496C127.777 56.3496 126.379 55.7591 125.291 54.5782C124.219 53.3817 123.683 51.7968 123.683 49.8234C123.683 47.8499 124.219 46.2728 125.291 45.0918C126.363 43.8954 127.723 43.2971 129.37 43.2971C131.017 43.2971 132.361 43.8876 133.402 45.0685C134.459 46.2495 134.987 47.8344 134.987 49.8234V50.6158H126.363C126.394 51.6414 126.674 52.4649 127.202 53.0865C127.746 53.6925 128.492 53.9955 129.44 53.9955C129.891 53.9955 130.295 53.9333 130.652 53.809C131.009 53.6847 131.32 53.4982 131.584 53.2496C131.864 53.001 132.074 52.7835 132.214 52.597C132.353 52.4105 132.517 52.1775 132.703 51.8978ZM126.387 48.6113H132.4C132.353 47.7412 132.074 47.0342 131.561 46.4903C131.048 45.9309 130.318 45.6512 129.37 45.6512C128.484 45.6512 127.777 45.9465 127.249 46.5369C126.721 47.1274 126.433 47.8189 126.387 48.6113Z" fill="white"/>
<path d="M115.131 55.9999L109.281 39.6843H112.171L116.46 51.9909H116.553L120.702 39.6843H123.569L117.788 55.9999H115.131Z" fill="white"/>
<path d="M98.3271 56H101.229V39.5774H98.3157L94.0251 42.5933V45.302L98.2361 42.3998H98.3271V56Z" fill="white"/>
<path d="M81.1549 56L82.2133 50.4802L82.1223 50.4347L83.2262 44.7784L83.3287 44.7215L84.3302 39.5774H82.1223L78.947 56H81.1549ZM86.6405 56L89.8158 39.5774H87.6079L86.6064 44.7215L86.6974 44.7671L85.5935 50.4347L85.491 50.4802L84.4326 56H86.6405ZM90.2824 51.7208L90.6921 49.5584H86.8909L86.8226 49.6608H81.3143L81.246 49.5584H77.5927L77.1716 51.7208H90.2824ZM91.3408 45.8369L91.7505 43.6745H78.6398L78.2187 45.8369H81.8719L81.9402 45.7344H87.4372L87.5054 45.8369H91.3408Z" fill="white"/>
<path d="M68.7214 51.8978L70.6326 53.4594C69.4361 55.3862 67.7269 56.3496 65.5049 56.3496C63.7956 56.3496 62.3971 55.7591 61.3094 54.5782C60.2373 53.3817 59.7012 51.7968 59.7012 49.8234C59.7012 47.8499 60.2373 46.2728 61.3094 45.0918C62.3816 43.8954 63.7412 43.2971 65.3883 43.2971C67.0354 43.2971 68.3795 43.8876 69.4206 45.0685C70.4772 46.2495 71.0055 47.8344 71.0055 49.8234V50.6158H62.3816C62.4127 51.6414 62.6924 52.4649 63.2207 53.0865C63.7645 53.6925 64.5104 53.9955 65.4582 53.9955C65.9089 53.9955 66.3129 53.9333 66.6703 53.809C67.0276 53.6847 67.3384 53.4982 67.6026 53.2496C67.8823 53.001 68.092 52.7835 68.2319 52.597C68.3717 52.4105 68.5349 52.1775 68.7214 51.8978ZM62.4049 48.6113H68.4184C68.3717 47.7412 68.092 47.0342 67.5793 46.4903C67.0665 45.9309 66.3362 45.6512 65.3883 45.6512C64.5026 45.6512 63.7956 45.9465 63.2673 46.5369C62.739 47.1274 62.4515 47.8189 62.4049 48.6113Z" fill="white"/>
<path d="M46.6777 55.9999V38.9851H49.3348V44.8587H49.3815C49.6612 44.4392 50.1195 44.074 50.7566 43.7632C51.3937 43.4525 52.0386 43.2971 52.6912 43.2971C54.012 43.2971 55.0841 43.7011 55.9077 44.5091C56.7312 45.3171 57.143 46.4204 57.143 47.8188V55.9999H54.5092V48.4481C54.5092 47.6401 54.2917 46.9875 53.8566 46.4903C53.4215 45.993 52.7922 45.7444 51.9686 45.7444C51.1762 45.7444 50.5391 45.9775 50.0574 46.4437C49.5757 46.9098 49.3348 47.5081 49.3348 48.2384V55.9999H46.6777Z" fill="white"/>
<path d="M36.9717 55.9999V42.2249H32.1003V39.6843H44.5701V42.2249H39.7221V55.9999H36.9717Z" fill="white"/>
<path d="M138.41 18.5147L140.27 18.1097C140.41 18.9997 140.645 19.6447 140.975 20.0447C141.315 20.4447 141.87 20.6447 142.64 20.6447C143.28 20.6447 143.78 20.5197 144.14 20.2697C144.5 20.0097 144.68 19.6597 144.68 19.2197C144.68 18.7797 144.51 18.4347 144.17 18.1847C143.84 17.9347 143.085 17.6297 141.905 17.2697C140.805 16.9297 140.015 16.5147 139.535 16.0247C139.065 15.5347 138.83 14.9397 138.83 14.2397C138.83 13.4397 139.14 12.7547 139.76 12.1847C140.38 11.6147 141.22 11.3297 142.28 11.3297C143.27 11.3297 144.115 11.5747 144.815 12.0647C145.515 12.5447 145.945 13.2597 146.105 14.2097L144.38 14.6297C144.24 14.1097 144.01 13.7047 143.69 13.4147C143.37 13.1247 142.9 12.9797 142.28 12.9797C141.71 12.9797 141.28 13.0947 140.99 13.3247C140.71 13.5547 140.57 13.8547 140.57 14.2247C140.57 14.5647 140.725 14.8347 141.035 15.0347C141.345 15.2347 142.075 15.5297 143.225 15.9197C144.465 16.3397 145.305 16.7797 145.745 17.2397C146.195 17.6997 146.42 18.3247 146.42 19.1147C146.42 20.0247 146.075 20.7797 145.385 21.3797C144.705 21.9797 143.785 22.2797 142.625 22.2797C141.415 22.2797 140.45 21.9647 139.73 21.3347C139.01 20.6947 138.57 19.7547 138.41 18.5147ZM148.863 19.3997V15.5747H147.663V14.1047H148.908V12.1547H150.528V14.1047H152.523V15.5747H150.543V19.2197C150.543 19.6597 150.608 19.9697 150.738 20.1497C150.878 20.3197 151.158 20.4047 151.578 20.4047H152.208V22.0547H151.443C150.483 22.0547 149.813 21.8447 149.433 21.4247C149.053 20.9947 148.863 20.3197 148.863 19.3997ZM159.085 22.0547V21.2597H159.055C159.015 21.3197 158.955 21.3947 158.875 21.4847C158.795 21.5647 158.665 21.6747 158.485 21.8147C158.315 21.9447 158.08 22.0547 157.78 22.1447C157.49 22.2347 157.165 22.2797 156.805 22.2797C155.875 22.2797 155.175 22.0597 154.705 21.6197C154.235 21.1697 154 20.6147 154 19.9547C154 19.2747 154.205 18.7547 154.615 18.3947C155.025 18.0247 155.72 17.7197 156.7 17.4797C157.58 17.2597 158.155 17.0797 158.425 16.9397C158.695 16.7897 158.83 16.5747 158.83 16.2947C158.83 16.0247 158.705 15.7997 158.455 15.6197C158.215 15.4397 157.855 15.3497 157.375 15.3497C156.825 15.3497 156.42 15.4747 156.16 15.7247C155.91 15.9747 155.725 16.3147 155.605 16.7447L154.15 16.1897C154.32 15.5097 154.675 14.9547 155.215 14.5247C155.755 14.0947 156.46 13.8797 157.33 13.8797C158.29 13.8797 159.065 14.1247 159.655 14.6147C160.245 15.1047 160.54 15.8697 160.54 16.9097V22.0547H159.085ZM157.045 18.6947C156.485 18.8347 156.11 18.9947 155.92 19.1747C155.74 19.3547 155.65 19.5747 155.65 19.8347C155.65 20.4747 156.085 20.7947 156.955 20.7947C157.595 20.7947 158.075 20.6647 158.395 20.4047C158.725 20.1447 158.89 19.8297 158.89 19.4597V17.8697H158.86C158.82 17.9497 158.765 18.0197 158.695 18.0797C158.635 18.1397 158.465 18.2247 158.185 18.3347C157.915 18.4447 157.535 18.5647 157.045 18.6947ZM163.14 22.0547V11.1047H164.85V17.5097H164.88L167.925 14.1047H170.1L167.22 17.2997L170.4 22.0547H168.465L165.945 18.2897H165.915L164.85 19.4597V22.0547H163.14ZM172.137 22.0547V14.1047H173.847V22.0547H172.137ZM172.107 12.7997V11.1047H173.877V12.7997H172.107ZM176.621 22.0547V14.1047H178.271V14.8697H178.301C178.521 14.5897 178.826 14.3547 179.216 14.1647C179.606 13.9747 180.016 13.8797 180.446 13.8797C181.326 13.8797 182.016 14.1447 182.516 14.6747C183.026 15.1947 183.281 15.9197 183.281 16.8497V22.0547H181.586V17.2997C181.586 16.0697 181.071 15.4547 180.041 15.4547C179.521 15.4547 179.106 15.6047 178.796 15.9047C178.486 16.2047 178.331 16.6097 178.331 17.1197V22.0547H176.621ZM186.014 23.6147L187.334 22.7747C187.544 23.2347 187.799 23.5797 188.099 23.8097C188.399 24.0397 188.799 24.1547 189.299 24.1547C189.849 24.1547 190.284 24.0047 190.604 23.7047C190.924 23.4047 191.084 22.9497 191.084 22.3397V21.3197H191.054C190.874 21.5797 190.604 21.8047 190.244 21.9947C189.884 22.1847 189.469 22.2797 188.999 22.2797C187.969 22.2797 187.114 21.9047 186.434 21.1547C185.764 20.4047 185.429 19.3797 185.429 18.0797C185.429 16.7997 185.774 15.7797 186.464 15.0197C187.164 14.2597 187.999 13.8797 188.969 13.8797C189.899 13.8797 190.614 14.2097 191.114 14.8697H191.144V14.1047H192.794V22.0997C192.794 23.2497 192.469 24.1297 191.819 24.7397C191.179 25.3497 190.339 25.6547 189.299 25.6547C188.479 25.6547 187.789 25.4647 187.229 25.0847C186.669 24.7147 186.264 24.2247 186.014 23.6147ZM191.084 19.0697V17.1497C191.084 16.6797 190.914 16.2747 190.574 15.9347C190.244 15.5947 189.804 15.4247 189.254 15.4247C188.614 15.4247 188.099 15.6547 187.709 16.1147C187.329 16.5747 187.139 17.2297 187.139 18.0797C187.139 18.9297 187.329 19.5847 187.709 20.0447C188.089 20.5047 188.604 20.7347 189.254 20.7347C189.794 20.7347 190.234 20.5747 190.574 20.2547C190.914 19.9247 191.084 19.5297 191.084 19.0697ZM199.862 22.0547V11.5547H204.047C205.127 11.5547 205.992 11.8447 206.642 12.4247C207.302 12.9947 207.632 13.7947 207.632 14.8247C207.632 15.6247 207.422 16.2847 207.002 16.8047C206.582 17.3247 206.012 17.6797 205.292 17.8697L207.557 22.0547H205.592L203.462 18.0197H201.632V22.0547H199.862ZM201.632 16.4897H203.912C205.202 16.4897 205.847 15.9347 205.847 14.8247C205.847 13.7147 205.202 13.1597 203.912 13.1597H201.632V16.4897ZM215.058 19.4147L216.288 20.4197C215.518 21.6597 214.418 22.2797 212.988 22.2797C211.888 22.2797 210.988 21.8997 210.288 21.1397C209.598 20.3697 209.253 19.3497 209.253 18.0797C209.253 16.8097 209.598 15.7947 210.288 15.0347C210.978 14.2647 211.853 13.8797 212.913 13.8797C213.973 13.8797 214.838 14.2597 215.508 15.0197C216.188 15.7797 216.528 16.7997 216.528 18.0797V18.5897H210.978C210.998 19.2497 211.178 19.7797 211.518 20.1797C211.868 20.5697 212.348 20.7647 212.958 20.7647C213.248 20.7647 213.508 20.7247 213.738 20.6447C213.968 20.5647 214.168 20.4447 214.338 20.2847C214.518 20.1247 214.653 19.9847 214.743 19.8647C214.833 19.7447 214.938 19.5947 215.058 19.4147ZM210.993 17.2997H214.863C214.833 16.7397 214.653 16.2847 214.323 15.9347C213.993 15.5747 213.523 15.3947 212.913 15.3947C212.343 15.3947 211.888 15.5847 211.548 15.9647C211.208 16.3447 211.023 16.7897 210.993 17.2997ZM219.914 22.0547L218.159 14.1047H219.839L220.964 19.6397H220.994L222.884 14.1047H224.429L226.199 19.6247H226.229L227.504 14.1047H229.154L227.249 22.0547H225.599L223.664 16.0847H223.634L221.549 22.0547H219.914ZM235.714 22.0547V21.2597H235.684C235.644 21.3197 235.584 21.3947 235.504 21.4847C235.424 21.5647 235.294 21.6747 235.114 21.8147C234.944 21.9447 234.709 22.0547 234.409 22.1447C234.119 22.2347 233.794 22.2797 233.434 22.2797C232.504 22.2797 231.804 22.0597 231.334 21.6197C230.864 21.1697 230.629 20.6147 230.629 19.9547C230.629 19.2747 230.834 18.7547 231.244 18.3947C231.654 18.0247 232.349 17.7197 233.329 17.4797C234.209 17.2597 234.784 17.0797 235.054 16.9397C235.324 16.7897 235.459 16.5747 235.459 16.2947C235.459 16.0247 235.334 15.7997 235.084 15.6197C234.844 15.4397 234.484 15.3497 234.004 15.3497C233.454 15.3497 233.049 15.4747 232.789 15.7247C232.539 15.9747 232.354 16.3147 232.234 16.7447L230.779 16.1897C230.949 15.5097 231.304 14.9547 231.844 14.5247C232.384 14.0947 233.089 13.8797 233.959 13.8797C234.919 13.8797 235.694 14.1247 236.284 14.6147C236.874 15.1047 237.169 15.8697 237.169 16.9097V22.0547H235.714ZM233.674 18.6947C233.114 18.8347 232.739 18.9947 232.549 19.1747C232.369 19.3547 232.279 19.5747 232.279 19.8347C232.279 20.4747 232.714 20.7947 233.584 20.7947C234.224 20.7947 234.704 20.6647 235.024 20.4047C235.354 20.1447 235.519 19.8297 235.519 19.4597V17.8697H235.489C235.449 17.9497 235.394 18.0197 235.324 18.0797C235.264 18.1397 235.094 18.2247 234.814 18.3347C234.544 18.4447 234.164 18.5647 233.674 18.6947ZM239.769 22.0547V14.1047H241.389V14.9447H241.419C241.579 14.6447 241.809 14.4047 242.109 14.2247C242.409 14.0447 242.729 13.9547 243.069 13.9547C243.299 13.9547 243.534 14.0047 243.774 14.1047L243.504 15.7697C243.214 15.6897 243.004 15.6497 242.874 15.6497C241.944 15.6497 241.479 16.3097 241.479 17.6297V22.0547H239.769ZM250.714 19.0097V17.2097C250.714 16.7197 250.549 16.2997 250.219 15.9497C249.899 15.5997 249.459 15.4247 248.899 15.4247C248.259 15.4247 247.764 15.6547 247.414 16.1147C247.064 16.5647 246.889 17.2197 246.889 18.0797C246.889 18.9397 247.064 19.5997 247.414 20.0597C247.764 20.5097 248.259 20.7347 248.899 20.7347C249.439 20.7347 249.874 20.5697 250.204 20.2397C250.544 19.8997 250.714 19.4897 250.714 19.0097ZM250.834 22.0547V21.2897H250.804C250.724 21.3997 250.619 21.5147 250.489 21.6347C250.369 21.7447 250.129 21.8797 249.769 22.0397C249.419 22.1997 249.039 22.2797 248.629 22.2797C247.579 22.2797 246.739 21.8997 246.109 21.1397C245.489 20.3797 245.179 19.3597 245.179 18.0797C245.179 16.7997 245.514 15.7797 246.184 15.0197C246.864 14.2597 247.674 13.8797 248.614 13.8797C249.454 13.8797 250.144 14.2097 250.684 14.8697H250.714V11.1047H252.424V22.0547H250.834ZM254.568 19.3997L256.128 19.0247C256.268 20.2347 256.908 20.8397 258.048 20.8397C258.578 20.8397 258.988 20.7497 259.278 20.5697C259.578 20.3797 259.728 20.1297 259.728 19.8197C259.728 19.5197 259.593 19.2997 259.323 19.1597C259.053 19.0197 258.458 18.8197 257.538 18.5597C256.608 18.2997 255.928 17.9947 255.498 17.6447C255.078 17.2847 254.868 16.8147 254.868 16.2347C254.868 15.5947 255.128 15.0447 255.648 14.5847C256.168 14.1147 256.883 13.8797 257.793 13.8797C259.543 13.8797 260.628 14.6547 261.048 16.2047L259.608 16.6247C259.308 15.7447 258.703 15.3047 257.793 15.3047C257.363 15.3047 257.028 15.3897 256.788 15.5597C256.548 15.7297 256.428 15.9297 256.428 16.1597C256.428 16.4197 256.558 16.6197 256.818 16.7597C257.088 16.8897 257.738 17.0997 258.768 17.3897C259.728 17.6597 260.383 17.9847 260.733 18.3647C261.093 18.7447 261.273 19.2397 261.273 19.8497C261.273 20.4797 261.003 21.0447 260.463 21.5447C259.933 22.0347 259.148 22.2797 258.108 22.2797C257.018 22.2797 256.183 22.0047 255.603 21.4547C255.023 20.8947 254.678 20.2097 254.568 19.3997Z" fill="white"/>
<g clip-path="url(#clip0_7328_7110)">
<path d="M70.3773 29L70.3776 28.983C64.0376 28.6483 59 23.4113 59 17C59 10.5887 64.0376 5.35166 70.3776 5.01699L70.3773 5H118.249C124.764 5.14766 130 10.4635 130 17C130 23.6274 124.617 29 117.977 29L118.249 28.996L70.3773 29Z" fill="#023BFF"/>
<path d="M98.8055 23.4865V11H104.049C104.926 11 105.683 11.1601 106.32 11.4803C107.052 11.848 107.635 12.3758 108.068 13.0636C108.5 13.7397 108.716 14.4868 108.716 15.3052C108.716 16.1235 108.5 16.8766 108.068 17.5645C107.647 18.2524 107.071 18.7801 106.338 19.1478C105.713 19.468 104.95 19.6281 104.049 19.6281H103.874L103.847 23.4865H98.8055ZM90.357 11V15.3784H95.7186V23.4865H90.357V19.5946H84.833V11H90.357ZM82.7209 11L76.7992 23.4865L70.698 11H82.7209Z" fill="#E0E0E0"/>
<path d="M122.584 14.0659L117.774 21.2657C117.575 21.565 117.25 21.7584 116.893 21.7933C116.853 21.7978 116.815 21.8 116.774 21.8C116.457 21.8 116.15 21.6752 115.925 21.4479L113.52 19.0484C113.05 18.5793 113.05 17.8211 113.52 17.3519C113.99 16.8828 114.75 16.8828 115.22 17.3519L116.588 18.7177L120.584 12.7361C120.953 12.1837 121.698 12.0352 122.251 12.4042C122.803 12.7698 122.952 13.5136 122.584 14.0659Z" fill="#E0E0E0"/>
</g>
<defs>
<clipPath id="clip0_7328_7110">
<rect width="71" height="24" fill="white" transform="translate(59 5)"/>
</clipPath>
</defs>
</svg>
