<?xml version="1.0" encoding="UTF-8"?>
<svg width="122px" height="25px" viewBox="0 0 122 25" version="1.1" xmlns="http://www.w3.org/2000/svg" xmlns:xlink="http://www.w3.org/1999/xlink">
    <!-- Generator: Sketch 59 (86127) - https://sketch.com -->
    <title>allnodes_logo</title>
    <desc>Created with Sketch.</desc>
    <g id="Page-1" stroke="none" stroke-width="1" fill="none" fill-rule="evenodd">
        <g id="Main" transform="translate(-470.000000, -42.000000)" fill="#FFFFFF">
            <g id="allnodes_logo" transform="translate(470.000000, 42.000000)">
                <path d="M12.5,0 C19.4035594,0 25,5.59644063 25,12.5 C25,15.1546996 24.1724456,17.6161135 22.761239,19.6403397 C22.7506724,19.6554962 22.7392326,19.671745 22.7269195,19.689086 C22.6306007,19.8247554 22.4425348,19.8566422 22.3068721,19.7603139 C22.2679666,19.7326887 22.2361793,19.6962174 22.2141277,19.6539029 C22.2141277,19.6539029 22.2141277,19.6539029 22.2141277,19.6539029 C20.7343185,16.814321 18.5146047,12.5549483 15.5549863,6.87578458 C15.1805107,6.15719615 14.4374535,5.70652174 13.627144,5.70652174 L10.1351996,5.70652174 C10.0477487,5.70652174 9.96158917,5.72762494 9.88403705,5.76803943 C9.61785757,5.90675268 9.51452578,6.23498308 9.65323903,6.50116255 C13.4980994,13.878913 16.3817446,19.4122258 18.3041748,23.101101 C18.3052687,23.1032001 18.3063766,23.1053261 18.3074986,23.1074789 C18.412354,23.3087576 18.3342258,23.5569404 18.1329633,23.6618269 C18.131424,23.662629 18.1298797,23.6634214 18.1283305,23.664204 C18.1283305,23.664204 18.1283305,23.664204 18.1283305,23.664204 C16.4367665,24.5186717 14.5245934,25 12.5,25 C10.5100614,25 8.62872734,24.5350084 6.95872585,23.707753 C6.95872585,23.707753 6.95872585,23.707753 6.95872585,23.707753 C6.74666306,23.6027052 6.65991031,23.3456362 6.76495817,23.1335734 C6.7662559,23.1309536 6.76758041,23.1283472 6.76896429,23.1257717 C6.76972404,23.1243137 6.77047753,23.1228678 6.77122477,23.1214339 C7.90920544,20.9377021 9.61617645,17.6621044 11.8921378,13.2946408 L11.910316,13.2562202 C12.0206406,12.997631 11.914844,12.6936255 11.6613398,12.5615177 C11.5837876,12.5211032 11.4976281,12.5 11.4101772,12.5 L7.91823278,12.5 L7.8400358,12.5014008 C7.06036773,12.5293546 6.35278629,12.9738547 5.99039049,13.6692628 C4.59083622,16.3547021 3.54117052,18.3687816 2.84139339,19.7115012 C2.84139339,19.7115012 2.84139339,19.7115012 2.84139339,19.7115012 C2.7623749,19.8631205 2.57540607,19.921975 2.42378683,19.8429565 C2.38070045,19.8205015 2.34350433,19.7882202 2.31521589,19.7487179 C2.30948658,19.7407212 2.30398043,19.7330001 2.29869743,19.7255549 C0.851014773,17.6853664 0,15.1920658 0,12.5 C0,5.59644063 5.59644063,0 12.5,0 Z" id="Path"></path>
                <path d="M48.6524696,19.8397317 L45.4753863,19.8397317 L44.585803,17.1690796 L38.676428,17.1690796 L37.7868446,19.8397317 L34.6309419,19.8397317 L39.820178,5.00277521 L43.442053,5.00277521 L48.6524696,19.8397317 Z M41.6417057,8.3728839 L39.6083724,14.4348404 L43.6750391,14.4348404 L41.6417057,8.3728839 Z M53.0686155,19.8397317 L50.3363238,19.8397317 L50.3363238,4.36690564 L53.0686155,4.36690564 L53.0686155,19.8397317 Z M58.6708724,19.8397317 L55.9385807,19.8397317 L55.9385807,4.36690564 L58.6708724,4.36690564 L58.6708724,19.8397317 Z M67.4290321,8.94516651 C68.5939626,8.94516651 69.5470876,9.32668825 70.2884071,10.1109274 C71.0509071,10.8951665 71.4321571,11.9549491 71.4321571,13.3326665 L71.4321571,19.8397317 L68.6998654,19.8397317 L68.6998654,13.6717969 C68.6998654,12.2516883 67.8738238,11.4886448 66.6029904,11.4886448 C65.1838932,11.4886448 64.2731293,12.3576665 64.2731293,14.1169056 L64.2731293,19.8397317 L61.5408376,19.8397317 L61.5408376,9.24190564 L64.2731293,9.24190564 L64.2731293,10.4288622 C64.9297265,9.43266651 65.9887543,8.94516651 67.4290321,8.94516651 Z M83.1555946,18.5256013 C82.0753862,19.6065796 80.7410112,20.1364709 79.1736501,20.1364709 C77.606289,20.1364709 76.271914,19.6065796 75.1917057,18.5256013 C74.1114973,17.444623 73.5819835,16.1092969 73.5819835,14.5408187 C73.5819835,12.9723404 74.1114973,11.65821 75.1917057,10.5772317 C76.271914,9.49625347 77.606289,8.94516651 79.1736501,8.94516651 C80.7410112,8.94516651 82.0753862,9.49625347 83.1555946,10.5772317 C84.2358029,11.65821 84.7864973,12.9723404 84.7864973,14.5408187 C84.7864973,16.1092969 84.2358029,17.444623 83.1555946,18.5256013 Z M77.1191362,16.6391883 C77.6698307,17.1902752 78.3476085,17.4658187 79.1736501,17.4658187 C79.9996918,17.4658187 80.6774696,17.1902752 81.228164,16.6391883 C81.7788585,16.0881013 82.0542057,15.3886448 82.0542057,14.5408187 C82.0542057,13.6929926 81.7788585,12.9935361 81.228164,12.4424491 C80.6774696,11.8913622 79.9996918,11.6158187 79.1736501,11.6158187 C78.3476085,11.6158187 77.6698307,11.8913622 77.1191362,12.4424491 C76.5896223,12.9935361 76.3142751,13.6929926 76.3142751,14.5408187 C76.3142751,15.3886448 76.5896223,16.0881013 77.1191362,16.6391883 Z M95.1120182,10.4924491 L95.1120182,5.00277521 L97.8443098,5.00277521 L97.8443098,19.8397317 L95.1120182,19.8397317 L95.1120182,18.5891883 C94.3071571,19.6277752 93.1634071,20.1364709 91.6807682,20.1364709 C90.2616709,20.1364709 89.0331987,19.6065796 88.0165321,18.5256013 C87.0210459,17.444623 86.5127126,16.1092969 86.5127126,14.5408187 C86.5127126,12.9723404 87.0210459,11.65821 88.0165321,10.5772317 C89.0331987,9.49625347 90.2616709,8.94516651 91.6807682,8.94516651 C93.1634071,8.94516651 94.3071571,9.45386216 95.1120182,10.4924491 Z M90.0710459,16.7027752 C90.6429209,17.2538622 91.3418793,17.5294056 92.1891015,17.5294056 C93.0363237,17.5294056 93.7352821,17.2538622 94.2859765,16.7027752 C94.8366709,16.1304926 95.1120182,15.4098404 95.1120182,14.5408187 C95.1120182,13.6717969 94.8366709,12.9511448 94.2859765,12.4000578 C93.7352821,11.8277752 93.0363237,11.5522317 92.1891015,11.5522317 C91.3418793,11.5522317 90.6429209,11.8277752 90.0710459,12.4000578 C89.5203515,12.9511448 89.2450043,13.6717969 89.2450043,14.5408187 C89.2450043,15.4098404 89.5203515,16.1304926 90.0710459,16.7027752 Z M111.008025,15.6641883 L103.022956,15.6641883 C103.383025,16.9995143 104.378511,17.6565796 106.009414,17.6565796 C107.047261,17.6565796 107.852122,17.2962535 108.381636,16.5967969 L110.584414,17.8685361 C109.546567,19.3734274 108.000386,20.1364709 105.967053,20.1364709 C104.209067,20.1364709 102.81115,19.6065796 101.752122,18.5467969 C100.693095,17.4870143 100.163581,16.1516883 100.163581,14.5408187 C100.163581,12.9511448 100.693095,11.6158187 101.730942,10.5560361 C102.768789,9.47505782 104.124345,8.94516651 105.755247,8.94516651 C107.301428,8.94516651 108.593442,9.47505782 109.588928,10.5560361 C110.605595,11.6370143 111.113928,12.9511448 111.113928,14.5408187 C111.113928,14.9011448 111.071567,15.2614709 111.008025,15.6641883 Z M102.980595,13.544623 L108.381636,13.544623 C108.063928,12.1033187 107.0049,11.4038622 105.755247,11.4038622 C104.293789,11.4038622 103.298303,12.1881013 102.980595,13.544623 Z M115.911324,12.2516883 C115.911324,12.8239709 116.758546,13.1419056 117.838754,13.4174491 C119.384935,13.7353839 121.397088,14.4772317 121.375907,16.7451665 C121.375907,17.8261448 120.973476,18.6739709 120.147435,19.2674491 C119.342574,19.8397317 118.325907,20.1364709 117.118615,20.1364709 C114.937018,20.1364709 113.454379,19.2886448 112.670699,17.6141883 L115.042921,16.2788622 C115.360629,17.1902752 116.038407,17.6565796 117.118615,17.6565796 C118.092921,17.6565796 118.580074,17.3598404 118.580074,16.7451665 C118.580074,16.1728839 117.732851,15.8549491 116.652643,15.5794056 C115.085282,15.1766883 113.11549,14.519623 113.11549,12.3152752 C113.11549,11.2766883 113.49674,10.4500578 114.25924,9.85657956 C115.042921,9.24190564 115.996046,8.94516651 117.139796,8.94516651 C118.855421,8.94516651 120.33806,9.7506013 121.164101,11.1919056 L118.83424,12.4636448 C118.495351,11.7429926 117.923476,11.3826665 117.139796,11.3826665 C116.440838,11.3826665 115.911324,11.7217969 115.911324,12.2516883 Z" id="Allnodes" fill-rule="nonzero"></path>
            </g>
        </g>
    </g>
</svg>