<svg width="2560" height="487" viewBox="0 0 2560 487" fill="none" xmlns="http://www.w3.org/2000/svg">
<path fill-rule="evenodd" clip-rule="evenodd" d="M2560 108V72.2841C2395.59 -2.55511 2081.82 -35.4255 1610.43 53.553C1180.72 134.663 1040.49 106.759 837.223 66.3119C747.268 48.412 644.968 28.0557 499.77 13.6046C320.858 -4.20202 123.905 2.74982 0 51.8577V108H0.00598907L0 487C144.876 424.109 552.55 296.846 1354.82 381.732C1976.96 447.558 2355.81 386.385 2560 326.474L2559.97 108H2560Z" fill="#F8FAFC"/>
<path opacity="0.2" fill-rule="evenodd" clip-rule="evenodd" d="M2560 103.391V72.2841C2415.34 6.43583 2155.06 -26.9219 1773.51 26.6216C2297.2 -2.36287 2533.64 92.0204 2560 103.391ZM998.881 94.9539C944.844 87.7271 893.445 77.4993 837.223 66.3119C747.268 48.412 644.968 28.0557 499.77 13.6046C466.628 10.306 432.866 7.85704 399.065 6.36825C449.026 13.975 496.06 25.1219 546.012 36.9606C659.257 63.7998 787.504 94.1944 998.881 94.9539Z" fill="#5B96FD"/>
</svg>
