<svg width="2560" height="1069" viewBox="0 0 2560 1069" fill="none" xmlns="http://www.w3.org/2000/svg">
<path fill-rule="evenodd" clip-rule="evenodd" d="M958.5 145H964.306C1094.86 144.763 1241.34 128.637 1391.66 112.091C1554.59 94.1554 1722.01 75.7253 1878.5 76.5C2181.5 78 2557.5 145 2557.5 145V0H0V65.3909C80.5415 52.0077 162.773 42.9648 231.5 45C331.201 47.9524 433.997 68.7512 542.09 90.6216C671.972 116.901 809.502 144.727 958.5 145ZM0 1069H2557.5V924C2557.5 924 1913.5 991 1610.5 992.5C1451.01 993.29 1275.58 974.268 1107.78 956.073L1107.78 956.073C956.794 939.702 811.983 924 690.5 924C552.11 924 415.321 951.217 284.217 977.304L284.215 977.304C185.689 996.908 90.3726 1015.87 0 1022.17V1069Z" fill="white"/>
<mask id="mask0_914_28312" style="mask-type:alpha" maskUnits="userSpaceOnUse" x="0" y="0" width="2558" height="1069">
<path fill-rule="evenodd" clip-rule="evenodd" d="M958.5 145H964.306C1094.86 144.763 1241.34 128.637 1391.66 112.091C1554.59 94.1554 1722.01 75.7253 1878.5 76.5C2181.5 78 2557.5 145 2557.5 145V0H0V65.3909C80.5415 52.0077 162.773 42.9648 231.5 45C331.201 47.9524 433.997 68.7512 542.09 90.6216C671.972 116.901 809.502 144.727 958.5 145ZM0 1069H2557.5V924C2557.5 924 1913.5 991 1610.5 992.5C1451.01 993.29 1275.58 974.268 1107.78 956.073L1107.78 956.073C956.794 939.702 811.983 924 690.5 924C552.11 924 415.321 951.217 284.217 977.304L284.215 977.304C185.689 996.908 90.3726 1015.87 0 1022.17V1069Z" fill="#C4C4C4"/>
</mask>
<g mask="url(#mask0_914_28312)">
<path opacity="0.1" fill-rule="evenodd" clip-rule="evenodd" d="M0 469.182V35.6925C120.74 -2.29017 269.249 -6.64836 410.692 27.106C486.823 45.2742 551.284 63.7246 610.255 80.6037C842.911 147.196 990.125 189.332 1431.41 93.1984C1558.67 65.4751 1673.05 71.9534 1774.7 77.7108C1810.9 79.7609 1845.48 81.7195 1878.45 82.0101C2078.78 83.7758 2219.79 104.836 2303 146.702V384.742L716.161 422.5L0 469.182Z" fill="#5B96FD"/>
<path opacity="0.1" fill-rule="evenodd" clip-rule="evenodd" d="M-76 1002.75V140.218C196.817 118.738 512.6 125.612 764.408 131.094C816.776 132.234 866.376 133.313 912.248 134.065C992.065 135.374 1076.94 120.126 1160.78 105.063C1277.65 84.0686 1392.5 63.435 1488.84 88.4997C2063.22 237.933 2111.17 650.426 2066.99 763.539C2022.82 876.651 1797.84 1012.62 1141.84 916.377C709.307 852.919 626.56 892.027 517.996 943.337C461.908 969.845 398.929 999.61 277.263 1020.17C162.931 1039.49 41.3726 1030.99 -76 1002.75Z" fill="#A562EE"/>
<path opacity="0.1" fill-rule="evenodd" clip-rule="evenodd" d="M2560.49 891.526V0H2554.24C2534.45 5.13454 2514.47 10.4319 2494.22 15.8037C2319.77 62.0705 2124.52 113.854 1845.6 114.62C1588.28 115.327 1524.37 115.314 1500.16 146.31C1476.81 176.206 1490.39 234.947 1403 351C1225 587.38 1567.66 1002 2021.5 1002C2235.71 1002 2412.65 959.226 2560.49 891.526Z" fill="#6A83FE"/>
</g>
</svg>
