<svg width="360" height="442" viewBox="0 0 360 442" fill="none" xmlns="http://www.w3.org/2000/svg">
<path fill-rule="evenodd" clip-rule="evenodd" d="M0 36.9523C7.84153 38.0624 15.5641 38.5862 23.0495 38.5172C59.5808 38.1601 83.6709 29.4293 108.664 20.3711C150.839 5.08604 195.587 -11.1314 307.026 10.3801C325.997 14.0933 343.643 14.9777 359.925 13.4805L359.93 441.951C314.25 441.512 262.744 438.301 204.94 431.206C125.678 421.476 57.9606 419.084 0.703487 421.144L0 36.9523Z" fill="#F8FAFC"/>
<mask id="mask0_933_25590" style="mask-type:alpha" maskUnits="userSpaceOnUse" x="0" y="0" width="360" height="442">
<path fill-rule="evenodd" clip-rule="evenodd" d="M0 36.9523C7.84153 38.0624 15.5641 38.5862 23.0495 38.5172C59.5808 38.1601 83.6709 29.4293 108.664 20.3711C150.839 5.08604 195.587 -11.1314 307.026 10.3801C325.997 14.0933 343.643 14.9777 359.925 13.4805L359.93 441.951C314.25 441.512 262.744 438.301 204.94 431.206C125.678 421.476 57.9606 419.084 0.703487 421.144L0 36.9523Z" fill="#F8FAFC"/>
</mask>
<g mask="url(#mask0_933_25590)">
<path opacity="0.3" fill-rule="evenodd" clip-rule="evenodd" d="M-93.1013 -267.376C-192.685 -83.6043 -66.8524 26.0971 27.6344 30.9838C121.851 35.8027 134.623 -25.0356 302.138 19.6062C469.186 64.6101 544.83 -143.049 470.152 -242.513C395.973 -342.129 6.538 -451.081 -93.1013 -267.376Z" fill="#648EFC"/>
<path opacity="0.3" fill-rule="evenodd" clip-rule="evenodd" d="M-125.7 -231.736C-198.739 -35.8933 -58.8633 55.228 35.384 46.9171C129.354 38.5767 133.535 -23.4471 305.633 -2.55323C477.318 18.7641 523.326 -197.402 435.532 -285.505C348.211 -373.827 -52.5975 -427.52 -125.7 -231.736Z" fill="#09A7F4"/>
</g>
</svg>
